<mxfile host="Electron" modified="2024-06-18T19:00:28.699Z" agent="Mozilla/5.0 (Windows NT 10.0; Win64; x64) AppleWebKit/537.36 (KHTML, like Gecko) draw.io/24.5.3 Chrome/124.0.6367.207 Electron/30.0.6 Safari/537.36" etag="twf6-2tC_OASIFnb5_W9" version="24.5.3" type="device">
  <diagram name="Page-1" id="y6lvZDk6rU4Od-lHuOss">
    <mxGraphModel dx="989" dy="589" grid="1" gridSize="10" guides="1" tooltips="1" connect="1" arrows="1" fold="1" page="1" pageScale="1" pageWidth="850" pageHeight="1100" math="0" shadow="0">
      <root>
        <mxCell id="0" />
        <mxCell id="1" parent="0" />
        <mxCell id="BN2SjDVVjFLFMzwL6X5X-1" value="&lt;div&gt;Authenticated&lt;br&gt;&lt;/div&gt;&lt;div&gt;Firely Server&lt;/div&gt;&lt;div&gt;&lt;br&gt;&lt;/div&gt;" style="sketch=0;outlineConnect=0;fontColor=#232F3E;gradientColor=none;fillColor=#3AB0DB;strokeColor=none;dashed=0;verticalLabelPosition=bottom;verticalAlign=top;align=center;html=1;fontSize=12;fontStyle=0;aspect=fixed;pointerEvents=1;shape=mxgraph.aws4.traditional_server;" parent="1" vertex="1">
          <mxGeometry x="580" y="280" width="40" height="69.34" as="geometry" />
        </mxCell>
        <mxCell id="BN2SjDVVjFLFMzwL6X5X-2" value="Provider Directory&lt;div&gt;Firely Server&lt;/div&gt;" style="sketch=0;outlineConnect=0;fontColor=#232F3E;gradientColor=none;fillColor=#3AB0DB;strokeColor=none;dashed=0;verticalLabelPosition=bottom;verticalAlign=top;align=center;html=1;fontSize=12;fontStyle=0;aspect=fixed;pointerEvents=1;shape=mxgraph.aws4.traditional_server;" parent="1" vertex="1">
          <mxGeometry x="200" y="280.01" width="40" height="69.33" as="geometry" />
        </mxCell>
        <mxCell id="BN2SjDVVjFLFMzwL6X5X-9" style="edgeStyle=orthogonalEdgeStyle;rounded=0;orthogonalLoop=1;jettySize=auto;html=1;exitX=0;exitY=0.5;exitDx=0;exitDy=0;exitPerimeter=0;" parent="1" source="BN2SjDVVjFLFMzwL6X5X-3" target="BN2SjDVVjFLFMzwL6X5X-2" edge="1">
          <mxGeometry relative="1" as="geometry" />
        </mxCell>
        <mxCell id="BN2SjDVVjFLFMzwL6X5X-11" value="No Authorization" style="edgeLabel;html=1;align=center;verticalAlign=middle;resizable=0;points=[];" parent="BN2SjDVVjFLFMzwL6X5X-9" vertex="1" connectable="0">
          <mxGeometry x="-0.0992" y="1" relative="1" as="geometry">
            <mxPoint as="offset" />
          </mxGeometry>
        </mxCell>
        <mxCell id="BN2SjDVVjFLFMzwL6X5X-10" value="Authorization" style="edgeStyle=orthogonalEdgeStyle;rounded=0;orthogonalLoop=1;jettySize=auto;html=1;exitX=1;exitY=0.5;exitDx=0;exitDy=0;exitPerimeter=0;" parent="1" source="BN2SjDVVjFLFMzwL6X5X-3" target="BN2SjDVVjFLFMzwL6X5X-1" edge="1">
          <mxGeometry x="-0.0027" relative="1" as="geometry">
            <mxPoint as="offset" />
          </mxGeometry>
        </mxCell>
        <mxCell id="BN2SjDVVjFLFMzwL6X5X-3" value="Load Balancer" style="sketch=0;aspect=fixed;pointerEvents=1;shadow=0;dashed=0;html=1;strokeColor=none;labelPosition=center;verticalLabelPosition=bottom;verticalAlign=top;align=center;fillColor=#194960;shape=mxgraph.azure.load_balancer_generic" parent="1" vertex="1">
          <mxGeometry x="391.5" y="190" width="37" height="50" as="geometry" />
        </mxCell>
        <mxCell id="BN2SjDVVjFLFMzwL6X5X-17" style="edgeStyle=orthogonalEdgeStyle;rounded=0;orthogonalLoop=1;jettySize=auto;html=1;" parent="1" source="BN2SjDVVjFLFMzwL6X5X-12" target="BN2SjDVVjFLFMzwL6X5X-15" edge="1">
          <mxGeometry relative="1" as="geometry" />
        </mxCell>
        <mxCell id="BN2SjDVVjFLFMzwL6X5X-12" value="Payer System" style="sketch=0;outlineConnect=0;fontColor=#232F3E;gradientColor=none;fillColor=#3AB0DB;strokeColor=none;dashed=0;verticalLabelPosition=bottom;verticalAlign=top;align=center;html=1;fontSize=12;fontStyle=0;aspect=fixed;pointerEvents=1;shape=mxgraph.aws4.traditional_server;" parent="1" vertex="1">
          <mxGeometry x="386.5" y="360" width="44" height="76.27" as="geometry" />
        </mxCell>
        <mxCell id="BN2SjDVVjFLFMzwL6X5X-22" style="edgeStyle=orthogonalEdgeStyle;rounded=0;orthogonalLoop=1;jettySize=auto;html=1;" parent="1" source="BN2SjDVVjFLFMzwL6X5X-15" target="BN2SjDVVjFLFMzwL6X5X-1" edge="1">
          <mxGeometry relative="1" as="geometry" />
        </mxCell>
        <mxCell id="BN2SjDVVjFLFMzwL6X5X-26" value="&lt;div&gt;Other CMS0057&lt;/div&gt;&lt;div&gt;Resources&lt;/div&gt;" style="edgeLabel;html=1;align=center;verticalAlign=middle;resizable=0;points=[];" parent="BN2SjDVVjFLFMzwL6X5X-22" vertex="1" connectable="0">
          <mxGeometry x="-0.2025" y="2" relative="1" as="geometry">
            <mxPoint as="offset" />
          </mxGeometry>
        </mxCell>
        <mxCell id="BN2SjDVVjFLFMzwL6X5X-23" style="edgeStyle=orthogonalEdgeStyle;rounded=0;orthogonalLoop=1;jettySize=auto;html=1;" parent="1" source="BN2SjDVVjFLFMzwL6X5X-15" target="BN2SjDVVjFLFMzwL6X5X-2" edge="1">
          <mxGeometry relative="1" as="geometry" />
        </mxCell>
        <mxCell id="BN2SjDVVjFLFMzwL6X5X-25" value="Provider Directory&lt;div&gt;Resources&lt;/div&gt;" style="edgeLabel;html=1;align=center;verticalAlign=middle;resizable=0;points=[];" parent="BN2SjDVVjFLFMzwL6X5X-23" vertex="1" connectable="0">
          <mxGeometry x="0.0161" y="1" relative="1" as="geometry">
            <mxPoint as="offset" />
          </mxGeometry>
        </mxCell>
        <mxCell id="BN2SjDVVjFLFMzwL6X5X-15" value="ETL" style="sketch=0;outlineConnect=0;fontColor=#232F3E;gradientColor=none;fillColor=#FDD106;strokeColor=none;dashed=0;verticalLabelPosition=top;verticalAlign=bottom;align=center;html=1;fontSize=12;fontStyle=0;aspect=fixed;pointerEvents=1;shape=mxgraph.aws4.gear;labelPosition=center;" parent="1" vertex="1">
          <mxGeometry x="394.5" y="300.66999999999996" width="28" height="28" as="geometry" />
        </mxCell>
        <mxCell id="BN2SjDVVjFLFMzwL6X5X-27" value="Client" style="sketch=0;outlineConnect=0;fontColor=#232F3E;gradientColor=none;strokeColor=#3AB0DB;fillColor=#ffffff;dashed=0;verticalLabelPosition=top;verticalAlign=bottom;align=center;html=1;fontSize=12;fontStyle=0;aspect=fixed;shape=mxgraph.aws4.resourceIcon;resIcon=mxgraph.aws4.client;labelPosition=center;" parent="1" vertex="1">
          <mxGeometry x="380" y="90" width="60" height="60" as="geometry" />
        </mxCell>
        <mxCell id="BN2SjDVVjFLFMzwL6X5X-28" style="edgeStyle=orthogonalEdgeStyle;rounded=0;orthogonalLoop=1;jettySize=auto;html=1;entryX=0.5;entryY=0;entryDx=0;entryDy=0;entryPerimeter=0;" parent="1" source="BN2SjDVVjFLFMzwL6X5X-27" target="BN2SjDVVjFLFMzwL6X5X-3" edge="1">
          <mxGeometry relative="1" as="geometry" />
        </mxCell>
        <mxCell id="bc6X3fultJd8hQo9GITk-1" value="&lt;font style=&quot;font-size: 16px;&quot;&gt;Provider Directory API&lt;/font&gt;" style="text;html=1;align=center;verticalAlign=middle;resizable=0;points=[];autosize=1;strokeColor=none;fillColor=none;fontStyle=1" vertex="1" parent="1">
          <mxGeometry x="320" y="10" width="180" height="30" as="geometry" />
        </mxCell>
      </root>
    </mxGraphModel>
  </diagram>
</mxfile>
